<svg width="35" height="35" viewBox="0 0 35 35" fill="none" xmlns="http://www.w3.org/2000/svg">
<g id="healthicons:group-discussion-meetingx3-outline">
<path id="Vector" fill-rule="evenodd" clip-rule="evenodd" d="M24.0625 13.5151C24.9105 13.7689 25.5208 13.8542 25.5208 13.8542V11.6667H26.9792C27.9461 11.6667 28.8734 11.2826 29.5572 10.5988C30.2409 9.9151 30.625 8.98777 30.625 8.02083C30.625 7.0539 30.2409 6.12657 29.5572 5.44284C28.8734 4.75911 27.9461 4.375 26.9792 4.375H22.7763C21.7637 4.375 20.7926 4.77724 20.0766 5.49324C19.3606 6.20924 18.9583 7.18034 18.9583 8.19292C18.9583 11.4873 22.1287 12.9369 24.0625 13.5151ZM29.1667 8.02083C29.1667 8.60099 28.9362 9.15739 28.526 9.56763C28.1157 9.97787 27.5593 10.2083 26.9792 10.2083H24.0625V11.9839C23.6625 11.848 23.272 11.6855 22.8936 11.4975C21.4477 10.7727 20.4167 9.74167 20.4167 8.19292C20.4167 7.56712 20.6653 6.96695 21.1078 6.52444C21.5503 6.08193 22.1504 5.83333 22.7763 5.83333H26.9792C27.5593 5.83333 28.1157 6.0638 28.526 6.47404C28.9362 6.88427 29.1667 7.44067 29.1667 8.02083ZM10.8041 13.1199C9.8485 13.0868 8.94422 12.6795 8.28619 11.9858C7.62815 11.2922 7.26908 10.3677 7.2864 9.41171C7.30372 8.45573 7.69603 7.54485 8.37875 6.87546C9.06147 6.20607 9.97991 5.83179 10.936 5.83333H13.2468C14.1814 5.83333 15.0778 6.20462 15.7387 6.86551C16.3996 7.5264 16.7708 8.42276 16.7708 9.3574C16.7708 12.3047 14.124 13.6522 12.3958 14.2188C11.5588 14.4929 10.9375 14.5833 10.9375 14.5833V13.125L10.8041 13.1199ZM12.3958 11.7184L10.8573 11.663C10.2791 11.6505 9.72949 11.4093 9.32874 10.9924C8.92799 10.5754 8.70878 10.0167 8.7191 9.43848C8.72941 8.86027 8.96843 8.30971 9.3838 7.90734C9.79918 7.50497 10.3571 7.28359 10.9353 7.29167H13.246C13.5174 7.29157 13.7861 7.34493 14.0368 7.4487C14.2875 7.55247 14.5153 7.70462 14.7072 7.89645C14.8991 8.08828 15.0513 8.31603 15.1552 8.56671C15.259 8.81738 15.3125 9.08606 15.3125 9.3574C15.3125 10.7538 14.4251 11.6689 13.1804 12.3178C12.9179 12.4549 12.6518 12.5716 12.3958 12.6707V11.7184ZM20.4167 17.5C20.4167 19.1115 19.1115 20.4167 17.5 20.4167C15.8885 20.4167 14.5833 19.1115 14.5833 17.5C14.5833 15.8885 15.8885 14.5833 17.5 14.5833C19.1115 14.5833 20.4167 15.8885 20.4167 17.5ZM18.9583 17.5C18.9583 17.8868 18.8047 18.2577 18.5312 18.5312C18.2577 18.8047 17.8868 18.9583 17.5 18.9583C17.1132 18.9583 16.7423 18.8047 16.4688 18.5312C16.1953 18.2577 16.0417 17.8868 16.0417 17.5C16.0417 17.1132 16.1953 16.7423 16.4688 16.4688C16.7423 16.1953 17.1132 16.0417 17.5 16.0417C17.8868 16.0417 18.2577 16.1953 18.5312 16.4688C18.8047 16.7423 18.9583 17.1132 18.9583 17.5ZM13.8542 18.9583C13.8542 20.5698 12.549 21.875 10.9375 21.875C9.32604 21.875 8.02083 20.5698 8.02083 18.9583C8.02083 17.3469 9.32604 16.0417 10.9375 16.0417C12.549 16.0417 13.8542 17.3469 13.8542 18.9583ZM12.3958 18.9583C12.3958 19.3451 12.2422 19.716 11.9687 19.9895C11.6952 20.263 11.3243 20.4167 10.9375 20.4167C10.5507 20.4167 10.1798 20.263 9.9063 19.9895C9.63281 19.716 9.47917 19.3451 9.47917 18.9583C9.47917 18.5716 9.63281 18.2006 9.9063 17.9271C10.1798 17.6536 10.5507 17.5 10.9375 17.5C11.3243 17.5 11.6952 17.6536 11.9687 17.9271C12.2422 18.2006 12.3958 18.5716 12.3958 18.9583ZM4.375 26.6474C4.375 24.4439 8.74708 23.3333 10.9375 23.3333C11.3641 23.3333 11.8738 23.3756 12.4177 23.4595C13.3948 22.7427 15.1864 21.875 17.5 21.875C19.8129 21.875 21.6045 22.7427 22.583 23.4595C23.0723 23.3806 23.5669 23.3384 24.0625 23.3333C26.2529 23.3333 30.625 24.4439 30.625 26.6474V30.625H4.375V26.6474ZM15.7879 26.2668C16.0417 26.503 16.0417 26.6262 16.0417 26.6474V29.1667H5.83333V26.6474C5.83333 26.6255 5.83333 26.503 6.08708 26.2668C6.35177 26.0196 6.78854 25.7564 7.38208 25.5157C8.57208 25.0345 10.026 24.7917 10.9375 24.7917C11.849 24.7917 13.3029 25.0345 14.4929 25.5157C15.0865 25.7564 15.5232 26.0196 15.7879 26.2668ZM20.5202 23.9575C19.567 23.5442 18.5389 23.3317 17.5 23.3333C16.2925 23.3333 15.2658 23.6148 14.4805 23.9575C16.0956 24.5 17.5 25.3983 17.5 26.6481C17.5 25.3983 18.9044 24.5007 20.5202 23.9575ZM29.1667 26.6481C29.1667 26.6263 29.1667 26.503 28.9129 26.2668C28.6482 26.0196 28.2115 25.7564 27.6179 25.5157C26.4279 25.0345 24.974 24.7917 24.0625 24.7917C23.151 24.7917 21.6971 25.0345 20.5071 25.5157C19.9135 25.7564 19.4768 26.0196 19.2121 26.2668C18.9583 26.503 18.9583 26.6262 18.9583 26.6474V29.1667H29.1667V26.6474V26.6481ZM24.0625 21.875C25.674 21.875 26.9792 20.5698 26.9792 18.9583C26.9792 17.3469 25.674 16.0417 24.0625 16.0417C22.451 16.0417 21.1458 17.3469 21.1458 18.9583C21.1458 20.5698 22.451 21.875 24.0625 21.875ZM24.0625 20.4167C24.4493 20.4167 24.8202 20.263 25.0937 19.9895C25.3672 19.716 25.5208 19.3451 25.5208 18.9583C25.5208 18.5716 25.3672 18.2006 25.0937 17.9271C24.8202 17.6536 24.4493 17.5 24.0625 17.5C23.6757 17.5 23.3048 17.6536 23.0313 17.9271C22.7578 18.2006 22.6042 18.5716 22.6042 18.9583C22.6042 19.3451 22.7578 19.716 23.0313 19.9895C23.3048 20.263 23.6757 20.4167 24.0625 20.4167Z" fill="#DDDDDD"/>
</g>
</svg>
