<svg width="111" height="111" viewBox="0 0 111 111" fill="none" xmlns="http://www.w3.org/2000/svg">
<path fill-rule="evenodd" clip-rule="evenodd" d="M57.9419 49.7326C57.5444 49.7161 57.1465 49.7115 56.7487 49.7188H51.7028L51.2819 53.9367C50.4772 61.9842 50.195 65.2217 50.9119 68.2789C51.6334 71.3406 53.3262 74.111 57.632 80.9606L69.5414 99.9046C69.79 100.29 69.9595 100.722 70.0403 101.173C70.1211 101.625 70.1114 102.088 70.0118 102.536C69.9123 102.984 69.7249 103.408 69.4604 103.783C69.196 104.158 68.8597 104.477 68.4712 104.721C68.0826 104.965 67.6495 105.13 67.1969 105.205C66.7443 105.281 66.2812 105.266 65.8344 105.161C65.3877 105.056 64.9661 104.864 64.5942 104.595C64.2222 104.327 63.9073 103.987 63.6676 103.595L51.7583 84.6514L51.4207 84.1149C47.5588 77.9775 45.1769 74.1896 44.1594 69.8699C43.1419 65.5455 43.5905 61.0916 44.3166 53.872L44.3768 53.243L44.7283 49.7234C42.4158 49.7373 40.6953 49.7789 39.317 49.95C37.5688 50.1581 36.7548 50.5281 36.1767 50.9906C35.6032 51.4531 35.0667 52.1654 34.4793 53.8257C33.8642 55.5694 33.3323 57.9328 32.5414 61.4894L31.1354 67.8164C31.0417 68.2663 30.8596 68.6931 30.5995 69.072C30.3395 69.4509 30.0068 69.7743 29.6207 70.0236C29.2346 70.2728 28.8028 70.4428 28.3504 70.5237C27.8981 70.6047 27.4341 70.5949 26.9856 70.495C26.537 70.3951 26.1127 70.2071 25.7375 69.9419C25.3622 69.6766 25.0434 69.3395 24.7995 68.95C24.5556 68.5605 24.3916 68.1264 24.3169 67.673C24.2422 67.2195 24.2583 66.7558 24.3644 66.3086L25.8166 59.7827C26.5474 56.4805 27.1671 53.7055 27.9395 51.5132C28.7581 49.1915 29.8774 47.1519 31.8384 45.5794C33.7994 44.0069 36.0287 43.3594 38.4753 43.0588C40.7832 42.7813 43.6275 42.7812 47.0084 42.7812H56.8643C57.4933 42.7812 57.9789 42.7812 58.4368 42.8136C60.956 42.994 63.3646 43.9204 65.3554 45.4746C67.3462 47.0289 68.8292 49.1408 69.6154 51.541C69.7541 51.9757 69.8744 52.4521 70.0317 53.0626L70.0548 53.1736C70.3138 54.2096 70.3924 54.5056 70.4664 54.7091C71.4376 57.5119 74.3745 59.126 77.2605 58.4415C77.4733 58.3952 77.7647 58.2981 78.7775 57.9605L82.1538 56.8366C83.0151 56.5854 83.9402 56.6777 84.7349 57.0941C85.5296 57.5105 86.1321 58.2186 86.4158 59.0697C86.6995 59.9209 86.6424 60.8488 86.2564 61.6587C85.8705 62.4687 85.1858 63.0976 84.346 63.4134L80.9698 64.5419C80.2769 64.7895 79.5732 65.0056 78.8608 65.1894C75.7948 65.917 72.5679 65.4806 69.8054 63.9648C67.0428 62.4489 64.9413 59.9615 63.9081 56.9846C63.6999 56.3343 63.5194 55.6754 63.367 55.0098L63.3254 54.8525C63.2352 54.4641 63.1334 54.0785 63.0201 53.6962C62.6624 52.6063 61.9886 51.6474 61.0843 50.9416C60.1799 50.2358 59.0861 49.8149 57.9419 49.7326Z" fill="#DDDDDD"/>
<path opacity="0.5" d="M64.7499 20.8125C64.7499 23.8791 63.5317 26.82 61.3633 28.9884C59.1949 31.1568 56.254 32.375 53.1874 32.375C50.1208 32.375 47.1799 31.1568 45.0115 28.9884C42.8431 26.82 41.6249 23.8791 41.6249 20.8125C41.6249 17.7459 42.8431 14.805 45.0115 12.6366C47.1799 10.4682 50.1208 9.25 53.1874 9.25C56.254 9.25 59.1949 10.4682 61.3633 12.6366C63.5317 14.805 64.7499 17.7459 64.7499 20.8125ZM43.5489 78.0515C44.3143 78.5618 44.8456 79.3552 45.026 80.2573C45.2064 81.1593 45.0211 82.0961 44.5109 82.8615L30.6359 103.674C30.3857 104.058 30.0616 104.389 29.6826 104.648C29.3036 104.906 28.877 105.087 28.4277 105.179C27.9784 105.272 27.5152 105.274 27.065 105.186C26.6147 105.099 26.1863 104.922 25.8046 104.668C25.423 104.413 25.0955 104.086 24.8413 103.704C24.5871 103.322 24.4112 102.894 24.3237 102.443C24.2362 101.993 24.2389 101.53 24.3316 101.081C24.4244 100.631 24.6053 100.205 24.8639 99.826L38.7389 79.0135C39.2492 78.2481 40.0427 77.7168 40.9447 77.5364C41.8467 77.356 42.7835 77.5413 43.5489 78.0515Z" fill="#DDDDDD"/>
</svg>
