<svg width="74" height="159" viewBox="0 0 74 159" fill="none" xmlns="http://www.w3.org/2000/svg">
<path d="M22.1824 90.9833C20.8257 90.9833 19.5718 90.6535 18.4207 89.994C17.3107 89.3344 16.4268 88.4482 15.769 87.3352C15.1113 86.1809 14.7824 84.9237 14.7824 83.5633V46.4633H19.7774V83.5633C19.7774 84.2229 20.0035 84.8 20.4557 85.2947C20.949 85.7481 21.5246 85.9748 22.1824 85.9748H51.7824C52.4402 85.9748 52.9952 85.7481 53.4474 85.2947C53.9407 84.8 54.1874 84.2229 54.1874 83.5633V46.4633H59.1824V83.5633C59.1824 84.9237 58.8535 86.1809 58.1957 87.3352C57.5379 88.4482 56.6335 89.3344 55.4824 89.994C54.3724 90.6535 53.139 90.9833 51.7824 90.9833H22.1824Z" fill="white"/>
<path d="M15.3286 150.167C13.3905 150.167 11.5992 149.696 9.95476 148.753C8.36905 147.811 7.10635 146.545 6.16667 144.955C5.22698 143.306 4.75714 141.51 4.75714 139.567V86.5667H11.8929V139.567C11.8929 140.509 12.2159 141.333 12.8619 142.04C13.5667 142.688 14.3889 143.012 15.3286 143.012H57.6143C58.554 143.012 59.3468 142.688 59.9929 142.04C60.6976 141.333 61.05 140.509 61.05 139.567V86.5667H68.1857V139.567C68.1857 141.51 67.7159 143.306 66.7762 144.955C65.8365 146.545 64.5444 147.811 62.9 148.753C61.3143 149.696 59.5524 150.167 57.6143 150.167H15.3286Z" fill="white"/>
<path d="M25.5476 54.7667H30.8333V64.4833H25.5476V54.7667Z" fill="white"/>
<path d="M50.2143 149.283H55.5V159H50.2143V149.283Z" fill="white"/>
<path d="M15.8571 149.283H21.1429V159H15.8571V149.283Z" fill="white"/>
<path d="M1.26857 1.02467V14.946H3.31238L5.70857 4.84066H26.64L24.3143 2.50866V22.578H12.3333L10.219 16.5713H8.45714V32.4007H10.219L12.4038 26.394H24.3143V43.4247L14.8 44.7673V46.8167H37.8457V44.9793C36.5302 44.5553 35.2616 44.2256 34.04 43.99C32.7714 43.7073 31.5263 43.4953 30.3048 43.354L29.6705 4.558L37.8457 3.00333V1.02467H1.26857Z" fill="white"/>
<path d="M33.4762 46.8167V44.1667H41.4048V46.8167H33.4762Z" fill="white"/>
<path d="M42.2857 61.8333V58.3H50.2143V61.8333H42.2857Z" fill="white"/>
<path d="M72.7314 1.02467V14.946H70.6876L68.2914 4.84066H47.36L49.6857 2.50866V22.578H61.6667L63.781 16.5713H65.5429V32.4007H63.781L61.5962 26.394H49.6857V43.4247L59.2 44.7673V46.8167H36.1543V44.9793C37.4698 44.5553 38.7384 44.2256 39.96 43.99C41.2286 43.7073 42.4737 43.4953 43.6952 43.354L44.3295 4.558L36.1543 3.00333V1.02467H72.7314Z" fill="white"/>
</svg>
