<svg width="34" height="32" viewBox="0 0 34 32" fill="none" xmlns="http://www.w3.org/2000/svg">
<path d="M27.5723 2.30325C28.6824 3.17365 29.4474 4.57955 29.7602 6.05175C29.7981 6.06374 29.835 6.07851 29.8707 6.09595L33.3472 7.70415C33.5415 7.79338 33.7062 7.93636 33.8219 8.1162C33.9376 8.29604 33.9994 8.50522 34 8.71905V29.743C33.9988 29.9176 33.9571 30.0896 33.8782 30.2454C33.7993 30.4012 33.6854 30.5367 33.5454 30.6411C33.4054 30.7455 33.2432 30.8161 33.0713 30.8472C32.8995 30.8784 32.7228 30.8693 32.555 30.8208L22.9177 28.1008L11.4597 31.2594C11.253 31.3161 11.0345 31.3138 10.829 31.2526L0.8058 28.2691C0.574125 28.201 0.370583 28.06 0.225412 27.8671C0.0802417 27.6741 0.00118942 27.4395 0 27.1981L0 5.79675C0 5.04875 0.7276 4.51155 1.4535 4.72235L11.1469 7.54605L16.0735 6.03815C16.1413 6.01813 16.2107 6.00392 16.2809 5.99565C16.4713 4.88045 17.0034 3.80945 17.8959 2.76565C18.955 1.52465 20.8131 0.797051 22.6236 0.710351C24.5021 0.620251 25.9369 1.02145 27.5706 2.30155L27.5723 2.30325ZM2.2661 7.29785V26.3634L10.5451 28.8267V9.70675L2.2661 7.29785ZM16.2214 8.34165L12.8112 9.38375V28.5581L21.4217 26.1883V20.5868C21.4217 19.968 21.93 19.4664 22.5556 19.4664C23.1812 19.4664 23.6878 19.968 23.6878 20.5885V25.9894L31.7339 28.2589V9.43135L29.8299 8.54735C29.7976 8.73435 29.7568 8.91795 29.7058 9.09645C29.3361 10.3999 28.716 11.6189 27.88 12.6852L23.6691 17.9433C23.5582 18.0815 23.4166 18.192 23.2556 18.2659C23.0945 18.3398 22.9184 18.3751 22.7413 18.369C22.5642 18.3629 22.3909 18.3155 22.2353 18.2307C22.0797 18.1459 21.9461 18.0259 21.845 17.8804L17.9095 12.1803C17.2601 11.2725 16.8045 10.4633 16.5478 9.73905C16.3867 9.28704 16.2772 8.81827 16.2214 8.34165ZM22.7324 2.95095C21.4982 3.01045 20.23 3.50685 19.6265 4.21235C18.9006 5.06235 18.5436 5.85795 18.4722 6.66375C18.3872 7.63445 18.445 8.31955 18.6864 8.99785C18.8649 9.49935 19.2202 10.1352 19.7693 10.9019L22.848 15.3593L26.095 11.3048C26.7501 10.4676 27.2357 9.51079 27.5247 8.48785C27.9327 7.05985 27.3173 4.96205 26.1647 4.06105C24.9832 3.13455 24.0907 2.88465 22.7341 2.95095H22.7324ZM22.967 4.13585C24.8438 4.13585 26.367 5.64035 26.367 7.49675C26.3646 7.94071 26.2747 8.37984 26.1024 8.78905C25.9302 9.19825 25.6791 9.56952 25.3633 9.88163C25.0476 10.1937 24.6734 10.4406 24.2623 10.6081C23.8511 10.7755 23.411 10.8603 22.967 10.8577C21.0902 10.8577 19.567 9.35315 19.567 7.49675C19.567 5.64035 21.0902 4.13585 22.967 4.13585ZM22.967 6.37645C22.819 6.37556 22.6722 6.40382 22.5352 6.45964C22.3981 6.51545 22.2733 6.59773 22.168 6.70176C22.0627 6.80579 21.979 6.92954 21.9215 7.06594C21.864 7.20235 21.834 7.34874 21.8331 7.49675C21.8331 8.11555 22.3414 8.61705 22.967 8.61705C23.115 8.61772 23.2617 8.58923 23.3987 8.53321C23.5357 8.47719 23.6603 8.39473 23.7655 8.29054C23.8706 8.18635 23.9542 8.06248 24.0115 7.92599C24.0687 7.7895 24.0985 7.64306 24.0992 7.49505C24.097 7.19672 23.9765 6.91144 23.7643 6.70176C23.5521 6.49208 23.2653 6.37509 22.967 6.37645Z" fill="#DDDDDD"/>
</svg>
