<svg width="31" height="30" viewBox="0 0 31 30" fill="none" xmlns="http://www.w3.org/2000/svg">
<g id="solar:document-line-duotone">
<g id="Group">
<path id="Vector" opacity="0.5" d="M4.53125 12.8125C4.53125 8.33444 4.53125 6.09481 5.95962 4.70425C7.38678 3.3125 9.68534 3.3125 14.2812 3.3125H16.7188C21.3147 3.3125 23.6132 3.3125 25.0404 4.70425C26.4687 6.09481 26.4688 8.33444 26.4688 12.8125V17.5625C26.4688 22.0406 26.4687 24.2802 25.0404 25.6707C23.6132 27.0625 21.3147 27.0625 16.7188 27.0625H14.2812C9.68534 27.0625 7.38678 27.0625 5.95962 25.6707C4.53125 24.2802 4.53125 22.0406 4.53125 17.5625V12.8125Z" stroke="white" stroke-width="1.5"/>
<path id="Vector_2" d="M10.625 12.8125H20.375M10.625 17.5625H16.7188" stroke="white" stroke-width="1.5" stroke-linecap="round"/>
</g>
</g>
</svg>
