<svg width="34" height="34" viewBox="0 0 34 34" fill="none" xmlns="http://www.w3.org/2000/svg">
<g clip-path="url(#clip0_239_596)">
<path d="M27.5723 3.30325C28.6824 4.17365 29.4474 5.57955 29.7602 7.05175C29.7981 7.06374 29.835 7.07851 29.8707 7.09595L33.3472 8.70415C33.5415 8.79338 33.7062 8.93636 33.8219 9.1162C33.9376 9.29604 33.9994 9.50522 34 9.71905V30.743C33.9988 30.9176 33.9571 31.0896 33.8782 31.2454C33.7993 31.4012 33.6854 31.5367 33.5454 31.6411C33.4054 31.7455 33.2432 31.8161 33.0713 31.8472C32.8995 31.8784 32.7228 31.8693 32.555 31.8208L22.9177 29.1008L11.4597 32.2594C11.253 32.3161 11.0345 32.3138 10.829 32.2526L0.8058 29.2691C0.574125 29.201 0.370583 29.06 0.225412 28.8671C0.0802417 28.6741 0.00118942 28.4395 0 28.1981L0 6.79675C0 6.04875 0.7276 5.51155 1.4535 5.72235L11.1469 8.54605L16.0735 7.03815C16.1413 7.01813 16.2107 7.00392 16.2809 6.99565C16.4713 5.88045 17.0034 4.80945 17.8959 3.76565C18.955 2.52465 20.8131 1.79705 22.6236 1.71035C24.5021 1.62025 25.9369 2.02145 27.5706 3.30155L27.5723 3.30325ZM2.2661 8.29785V27.3634L10.5451 29.8267V10.7068L2.2661 8.29785ZM16.2214 9.34165L12.8112 10.3838V29.5581L21.4217 27.1883V21.5868C21.4217 20.968 21.93 20.4664 22.5556 20.4664C23.1812 20.4664 23.6878 20.968 23.6878 21.5885V26.9894L31.7339 29.2589V10.4314L29.8299 9.54735C29.7976 9.73435 29.7568 9.91795 29.7058 10.0965C29.3361 11.3999 28.716 12.6189 27.88 13.6852L23.6691 18.9433C23.5582 19.0815 23.4166 19.192 23.2556 19.2659C23.0945 19.3398 22.9184 19.3751 22.7413 19.369C22.5642 19.3629 22.3909 19.3155 22.2353 19.2307C22.0797 19.1459 21.9461 19.0259 21.845 18.8804L17.9095 13.1803C17.2601 12.2725 16.8045 11.4633 16.5478 10.7391C16.3867 10.287 16.2772 9.81827 16.2214 9.34165ZM22.7324 3.95095C21.4982 4.01045 20.23 4.50685 19.6265 5.21235C18.9006 6.06235 18.5436 6.85795 18.4722 7.66375C18.3872 8.63445 18.445 9.31955 18.6864 9.99785C18.8649 10.4994 19.2202 11.1352 19.7693 11.9019L22.848 16.3593L26.095 12.3048C26.7501 11.4676 27.2357 10.5108 27.5247 9.48785C27.9327 8.05985 27.3173 5.96205 26.1647 5.06105C24.9832 4.13455 24.0907 3.88465 22.7341 3.95095H22.7324ZM22.967 5.13585C24.8438 5.13585 26.367 6.64035 26.367 8.49675C26.3646 8.94071 26.2747 9.37984 26.1024 9.78905C25.9302 10.1983 25.6791 10.5695 25.3633 10.8816C25.0476 11.1937 24.6734 11.4406 24.2623 11.6081C23.8511 11.7755 23.411 11.8603 22.967 11.8577C21.0902 11.8577 19.567 10.3532 19.567 8.49675C19.567 6.64035 21.0902 5.13585 22.967 5.13585ZM22.967 7.37645C22.819 7.37556 22.6722 7.40382 22.5352 7.45964C22.3981 7.51545 22.2733 7.59773 22.168 7.70176C22.0627 7.80579 21.979 7.92954 21.9215 8.06594C21.864 8.20235 21.834 8.34874 21.8331 8.49675C21.8331 9.11555 22.3414 9.61705 22.967 9.61705C23.115 9.61772 23.2617 9.58923 23.3987 9.53321C23.5357 9.47719 23.6603 9.39473 23.7655 9.29054C23.8706 9.18635 23.9542 9.06248 24.0115 8.92599C24.0687 8.7895 24.0985 8.64306 24.0992 8.49505C24.097 8.19672 23.9765 7.91144 23.7643 7.70176C23.5521 7.49208 23.2653 7.37509 22.967 7.37645Z" fill="#699BF7"/>
</g>
<defs>
<clipPath id="clip0_239_596">
<rect width="34" height="34" fill="white"/>
</clipPath>
</defs>
</svg>
