<svg width="28" height="28" viewBox="0 0 28 28" fill="none" xmlns="http://www.w3.org/2000/svg">
<path d="M8.1853 14.074H19.6668M8.1853 9.48145H15.0742" stroke="#699BF7" stroke-width="1.5" stroke-linecap="round" stroke-linejoin="round"/>
<path d="M3.59265 23.5922V6.03702C3.59265 5.428 3.83458 4.84393 4.26522 4.41329C4.69586 3.98265 5.27993 3.74072 5.88895 3.74072H21.963C22.572 3.74072 23.1561 3.98265 23.5867 4.41329C24.0174 4.84393 24.2593 5.428 24.2593 6.03702V17.5185C24.2593 18.1275 24.0174 18.7116 23.5867 19.1422C23.1561 19.5729 22.572 19.8148 21.963 19.8148H9.28861C8.94444 19.8148 8.60467 19.8922 8.29445 20.0413C7.98422 20.1904 7.71147 20.4072 7.49635 20.6759L4.82002 24.0216C4.73096 24.1332 4.6094 24.2144 4.47218 24.2539C4.33495 24.2935 4.18884 24.2894 4.05405 24.2422C3.91926 24.195 3.80245 24.1072 3.71979 23.9907C3.63713 23.8743 3.5927 23.735 3.59265 23.5922Z" stroke="#699BF7" stroke-width="1.5"/>
</svg>
