<svg width="27" height="27" viewBox="0 0 27 27" fill="none" xmlns="http://www.w3.org/2000/svg">
<g clip-path="url(#clip0_216_551)">
<path d="M27.0001 10.5976C27.0006 10.2311 26.9041 9.87094 26.7204 9.55379C26.5366 9.23663 26.2721 8.9738 25.9538 8.79202L14.5801 2.04202C14.2523 1.85077 13.8796 1.75 13.5001 1.75C13.1206 1.75 12.7479 1.85077 12.4201 2.04202L1.02943 8.79202C0.714667 8.97879 0.453915 9.24425 0.272805 9.56231C0.091695 9.88037 -0.00354004 10.2401 -0.00354004 10.6061C-0.00354004 10.9721 0.091695 11.3318 0.272805 11.6499C0.453915 11.9679 0.714667 12.2334 1.02943 12.4201L4.26943 14.3101V19.052C4.27138 19.4226 4.36865 19.7865 4.55188 20.1086C4.73511 20.4307 4.99815 20.7003 5.31568 20.8914L12.4876 25.0258C12.8078 25.2031 13.1678 25.2961 13.5338 25.2961C13.8998 25.2961 14.2598 25.2031 14.5801 25.0258L21.7519 20.8914C22.0695 20.7003 22.3325 20.4307 22.5157 20.1086C22.699 19.7865 22.7962 19.4226 22.7982 19.052V14.2595L24.8907 13.0276V17.6176H27.0001V10.5976ZM20.7057 19.0351L13.5001 23.1864L6.37881 19.052V15.5589L12.4201 19.1533C12.749 19.3412 13.1212 19.4401 13.5001 19.4401C13.8789 19.4401 14.2511 19.3412 14.5801 19.1533L20.6888 15.5083L20.7057 19.0351ZM13.5001 17.3308L2.10943 10.5808L13.5001 3.8139L24.8907 10.5639L13.5001 17.3308Z" fill="#699BF7"/>
</g>
<defs>
<clipPath id="clip0_216_551">
<rect width="27" height="27" fill="white"/>
</clipPath>
</defs>
</svg>
